<svg width="158" height="34" viewBox="0 0 158 34" fill="none" xmlns="http://www.w3.org/2000/svg">
<g clip-path="url(#clip0_823_14911)">
<path d="M7.57717 4.43623C8.96803 3.62376 10.5606 3.21739 12.1727 3.26353C14.1663 3.26353 15.8524 3.74379 17.2311 4.70421C18.313 5.45111 19.0779 6.57077 19.3779 7.84667C19.4559 8.16653 19.6399 8.45102 19.9001 8.65425C20.1603 8.85749 20.4816 8.96772 20.8123 8.96721L23.4383 8.96721C23.2501 6.10992 22.1319 3.90052 20.0836 2.33903C18.0353 0.777534 15.3786 -0.00217326 12.1136 4.54945e-06C9.15935 4.54945e-06 6.86158 0.581627 4.84939 1.78378C2.8372 2.98593 1.65221 4.74343 1.59313 7.01053C1.54913 7.59609 1.62766 8.18432 1.82371 8.73816C2.01976 9.292 2.3291 9.79929 2.73218 10.2281C3.52655 11.0383 4.60978 11.5088 5.97203 11.9171C7.71431 12.3808 9.48076 12.7494 11.2635 13.0213C13.3347 13.3806 14.8578 13.704 15.9969 14.0013C16.9618 14.1965 17.8637 14.625 18.6229 15.2491C18.961 15.5769 19.2222 15.9751 19.3879 16.4149C19.5536 16.8548 19.6196 17.3257 19.5814 17.7939C19.542 19.3184 18.8023 20.4476 17.3624 21.1815C15.8901 21.9198 14.2611 22.2951 12.6126 22.2759C10.6917 22.3313 8.79681 21.8234 7.16359 20.8156C5.99089 20.0803 5.13364 18.9385 4.75749 17.6109C4.66638 17.2972 4.47528 17.0216 4.213 16.8254C3.95071 16.6291 3.63146 16.523 3.30333 16.5231H0.513184C0.732019 19.4174 1.96406 21.6443 4.20931 23.2036C6.45456 24.7629 9.27534 25.5426 12.6717 25.5426C15.5143 25.5426 17.8088 25.0264 19.9129 23.8732C22.017 22.7201 23.2742 20.9757 23.3333 18.7674C23.3705 17.3692 22.9832 16.2564 22.1713 15.4289C21.3605 14.5991 20.2543 14.0797 18.8625 13.655C17.0821 13.1405 15.2709 12.7379 13.4398 12.4496C10.666 11.9759 8.70308 11.4695 7.39663 10.9011C6.80495 10.673 6.30137 10.2639 5.95858 9.73253C5.6158 9.20115 5.45153 8.57509 5.48949 7.94476C5.49668 7.22733 5.69491 6.52466 6.06397 5.90833C6.43302 5.29199 6.9597 4.78396 7.59031 4.43623" fill="#080807"/>
<path d="M42.2309 -0.00317383C37.0707 -0.00317383 34.0475 2.98588 32.7706 7.35348V2.07122C32.7706 1.64583 32.6008 1.23777 32.2986 0.936965C31.9963 0.636164 31.5864 0.467214 31.1589 0.467214L28.9629 0.467214V31.9127C28.9629 32.1236 29.0047 32.3323 29.0859 32.5271C29.1671 32.722 29.2861 32.899 29.4361 33.0479C29.5861 33.1969 29.7642 33.3151 29.9601 33.3955C30.156 33.4759 30.366 33.517 30.5779 33.5166H32.7706V18.2381C34.0475 22.5241 37.0707 25.5361 42.2309 25.5361C48.8747 25.5361 53.6902 20.0838 53.6902 12.7664C53.6902 5.44893 48.878 -0.00317383 42.2309 -0.00317383ZM40.9178 22.6058C35.8266 22.6058 32.7772 19.2933 32.7772 12.7664C32.7772 6.37014 35.8266 2.92714 40.9178 2.92714C45.6316 2.92714 49.4721 6.73928 49.4721 12.7664C49.4721 18.7935 45.6316 22.6058 40.9178 22.6058Z" fill="#080807"/>
<path d="M71.2678 -0.00317383C67.4765 -0.00317383 63.8263 3.1557 62.707 7.47104V2.07441C62.707 1.64902 62.5372 1.24111 62.2349 0.940314C61.9327 0.639514 61.5227 0.470564 61.0953 0.470564L58.896 0.470564V23.4583C58.896 23.6692 58.9378 23.8781 59.019 24.0729C59.1002 24.2677 59.2192 24.4447 59.3692 24.5937C59.5192 24.7427 59.6973 24.8607 59.8932 24.9411C60.0891 25.0215 60.2991 25.0628 60.511 25.0623H62.7037V11.8224C62.7792 6.8668 65.9173 2.77023 70.3258 2.97276C73.4704 3.11323 74.8458 5.63519 75.1773 8.98684C75.2139 9.37479 75.3941 9.7354 75.6828 9.9986C75.9716 10.2618 76.3483 10.4087 76.7398 10.4111H78.949C79.3232 2.43703 75.8404 1.63263e-05 71.2646 1.63263e-05" fill="#080807"/>
<path d="M99.9804 2.93665C99.1075 1.86655 97.9408 1.07207 96.6223 0.649951L96.2383 0.525854C93.1987 -0.411694 89.8439 -0.0490879 86.9126 1.1792C85.5832 1.73781 84.2866 2.48587 83.3938 3.60962C82.839 4.30216 82.4943 5.30168 82.9802 6.04323C83.6761 7.11798 85.2779 6.57255 86.2627 6.16094C87.6151 5.58927 88.8329 5.03067 90.3297 5.03067C91.5837 5.03067 93.0149 5.82122 92.9755 7.23571C92.9361 8.65019 91.6132 9.4473 90.5595 10.1202C89.0003 11.1199 87.4871 11.9724 85.9016 12.8708C83.8927 14.0043 81.9265 15.4057 80.8071 17.418C79.6878 19.4303 79.6418 22.1842 81.2371 23.8502C82.4024 25.0719 84.1914 25.4836 85.8852 25.5293C90.4807 25.6306 94.3115 23.0792 97.6564 20.1817V23.4484C97.6564 23.8738 97.8262 24.2817 98.1284 24.5825C98.4307 24.8833 98.8406 25.0524 99.2681 25.0524H101.461V10.9532C101.5 9.53641 101.458 8.11854 101.336 6.70646C101.231 5.34635 100.759 4.0396 99.9705 2.92357M97.6728 19.0187C97.0163 19.5512 96.1628 20.1816 94.8367 21.1159C91.9644 23.138 87.8383 24.1768 85.9213 22.0698C84.0962 20.0607 84.9365 17.2416 86.6238 15.4449C88.0418 13.939 89.752 12.6715 91.2554 11.2571C92.6144 9.97323 94.2688 8.45411 93.9274 6.57901C93.6976 5.31806 92.8737 4.74315 92.017 4.40668C91.0322 4.0212 89.4435 4.08006 88.1337 4.21399C87.6676 4.25646 86.8207 4.35433 86.6664 3.83819C86.4695 3.21098 87.2967 2.56423 87.7168 2.26369C89.3253 1.11381 91.6559 0.578058 93.5565 1.19547C96.7176 2.21795 97.6728 5.63498 97.6728 8.67303V19.0187Z" fill="#080807"/>
<path d="M157.372 6.71636C157.266 5.35625 156.795 4.04967 156.006 2.93364C155.134 1.86283 153.967 1.0682 152.648 0.646937L152.264 0.522681C149.228 -0.414867 145.87 -0.0522618 142.939 1.17602C141.626 1.73463 140.312 2.48269 139.42 3.60644C138.865 4.29899 138.52 5.29867 139.006 6.04021C139.702 7.11496 141.32 6.56938 142.289 6.15777C143.641 5.58609 144.859 5.0275 146.356 5.0275C147.61 5.0275 149.041 5.81804 149.001 7.23253C148.962 8.64702 147.642 9.44413 146.585 10.1171C145.026 11.1167 143.513 11.9693 141.927 12.8676C139.919 14.0012 137.952 15.4026 136.833 17.4149C135.714 19.4272 135.668 22.181 137.263 23.847C138.428 25.0688 140.217 25.4804 141.911 25.5261C146.507 25.6274 150.337 23.0761 153.682 20.1785V23.4452C153.682 23.8706 153.852 24.2787 154.154 24.5795C154.457 24.8803 154.866 25.0492 155.294 25.0492H157.487V10.95C157.526 9.53323 157.484 8.11537 157.362 6.70328M153.682 19.0157C153.026 19.5482 152.172 20.1786 150.846 21.1129C147.974 23.135 143.848 24.1738 141.931 22.0667C140.106 20.0577 140.946 17.2385 142.633 15.4418C144.055 13.9358 145.761 12.6684 147.265 11.2539C148.624 9.97006 150.278 8.45109 149.937 6.576C149.707 5.31504 148.883 4.74013 148.026 4.40366C147.042 4.01819 145.453 4.07688 144.143 4.21082C143.677 4.25328 142.83 4.35132 142.676 3.83518C142.482 3.20797 143.306 2.56121 143.726 2.26068C145.335 1.11079 147.665 0.575044 149.566 1.19245C152.727 2.21494 153.682 5.63181 153.682 8.66986V19.0157Z" fill="#080807"/>
<path d="M127.609 2.07757V7.39253C126.335 3.00859 123.312 0.00317383 118.139 0.00317383C111.492 0.00317383 106.68 5.45854 106.68 12.7727C106.68 20.0869 111.495 25.5424 118.139 25.5424C123.312 25.5424 126.345 22.514 127.609 18.2118V22.403C127.609 23.8894 127.491 32.3665 121.234 32.8892C113.622 33.5229 110.231 26.4047 110.231 26.4047C110.231 26.4047 108.987 27.9042 108.541 28.9071C108.356 29.3413 108.321 29.8239 108.439 30.2803C108.558 30.7367 108.824 31.1415 109.197 31.4323C110.911 32.7553 115.631 34.6369 121.884 33.7875C131.105 32.5364 131.427 23.9318 131.427 19.3813V0.473562L129.231 0.473562C128.803 0.473562 128.393 0.642512 128.091 0.943312C127.789 1.24411 127.619 1.65218 127.619 2.07757M119.455 22.6121C114.742 22.6121 110.901 18.7998 110.901 12.7727C110.901 6.74563 114.742 2.93349 119.455 2.93349C124.546 2.93349 127.596 6.37649 127.596 12.7727C127.596 19.3062 124.546 22.6121 119.455 22.6121Z" fill="#080807"/>
</g>
<defs>
<clipPath id="clip0_823_14911">
<rect width="157" height="34" fill="white" transform="translate(0.5)"/>
</clipPath>
</defs>
</svg>
